<svg width="26" height="25" viewBox="0 0 26 25" fill="none" xmlns="http://www.w3.org/2000/svg">
<path fill-rule="evenodd" clip-rule="evenodd" d="M19.9233 3.10003C20.9701 3.14814 21.7699 4.05239 21.6897 5.0973L21.5947 6.33602C21.5448 6.98638 21.8397 7.61524 22.3716 7.9927L23.3849 8.71163C24.2395 9.31808 24.4235 10.5112 23.7911 11.3469L23.0414 12.3375C22.6478 12.8577 22.556 13.5462 22.7994 14.1513L23.2631 15.3039C23.6542 16.2761 23.1639 17.3793 22.1801 17.7404L21.0138 18.1685C20.4015 18.3933 19.952 18.9228 19.8297 19.5635L19.5966 20.7838C19.4 21.8132 18.3911 22.4761 17.3683 22.248L16.1557 21.9777C15.519 21.8357 14.8546 22.0382 14.4053 22.511L13.5495 23.4116C12.8276 24.1712 11.6204 24.1835 10.8833 23.4386L10.0093 22.5556C9.55052 22.092 8.88211 21.9031 8.24848 22.0579L7.04164 22.3529C6.02362 22.6016 5.0015 21.9593 4.78405 20.9342L4.52626 19.7188C4.39092 19.0808 3.93075 18.5605 3.314 18.3482L2.13929 17.9438C1.14837 17.6027 0.635773 16.5098 1.00709 15.5298L1.44728 14.368C1.67838 13.7581 1.57256 13.0716 1.16849 12.5595L0.398879 11.5843C-0.250325 10.7616 -0.0906616 9.56503 0.751536 8.94135L1.74994 8.202C2.27413 7.81382 2.55624 7.1791 2.49315 6.52989L2.37297 5.29336C2.2716 4.25029 3.05284 3.32999 4.09853 3.26065L5.33816 3.17844C5.989 3.13528 6.56948 2.75385 6.8674 2.17359L7.43482 1.06838C7.91346 0.13609 9.06823 -0.21575 9.98541 0.291255L11.0727 0.892296C11.6436 1.20786 12.3381 1.20081 12.9024 0.873725L13.9773 0.250739C14.884 -0.274778 16.0457 0.0535508 16.5431 0.975934L17.1329 2.06939C17.4425 2.64349 18.0306 3.01307 18.6822 3.04301L19.9233 3.10003ZM17.6707 11.8007C17.6707 14.8777 15.1763 17.3721 12.0993 17.3721C9.0223 17.3721 6.52788 14.8777 6.52788 11.8007C6.52788 8.7237 9.0223 6.22929 12.0993 6.22929C15.1763 6.22929 17.6707 8.7237 17.6707 11.8007ZM13.0288 9.01636H11.1717V14.5852H13.0288V9.01636Z" fill="#E3CF03"/>
</svg>
