<svg width="19" height="17" viewBox="0 0 19 17" fill="none" xmlns="http://www.w3.org/2000/svg">
<path fill-rule="evenodd" clip-rule="evenodd" d="M14.0291 2.18286C14.7663 2.21673 15.3294 2.85346 15.273 3.58923L15.206 4.46146C15.1709 4.9194 15.3786 5.36221 15.7532 5.62799L16.4666 6.13422C17.0684 6.56125 17.1979 7.40136 16.7526 7.9898L16.2248 8.68738C15.9476 9.05363 15.8829 9.53842 16.0544 9.96453L16.3809 10.7761C16.6563 11.4607 16.311 12.2375 15.6183 12.4918L14.7971 12.7932C14.3659 12.9515 14.0494 13.3244 13.9632 13.7755L13.7991 14.6348C13.6607 15.3596 12.9503 15.8264 12.2301 15.6658L11.3762 15.4754C10.928 15.3755 10.4601 15.518 10.1437 15.8509L9.5411 16.4851C9.03277 17.02 8.18278 17.0286 7.6637 16.5041L7.04834 15.8824C6.72526 15.5559 6.25461 15.4229 5.80845 15.5319L4.95866 15.7396C4.24183 15.9148 3.52211 15.4625 3.36899 14.7406L3.18747 13.8849C3.09217 13.4356 2.76815 13.0692 2.33387 12.9197L1.50671 12.635C0.808961 12.3948 0.448017 11.6252 0.709477 10.9352L1.01943 10.1171C1.18216 9.68763 1.10765 9.20425 0.823128 8.8437L0.281212 8.15698C-0.175921 7.5777 -0.0634952 6.73514 0.529531 6.29598L1.23255 5.77537C1.60165 5.50204 1.8003 5.05511 1.75587 4.59797L1.67125 3.72728C1.59987 2.99281 2.14998 2.34479 2.88629 2.29596L3.75916 2.23807C4.21745 2.20768 4.62619 1.9391 4.83596 1.53051L5.23551 0.752291C5.57255 0.0958269 6.38567 -0.151919 7.03149 0.205085L7.7971 0.628303C8.19906 0.850503 8.68812 0.84554 9.08549 0.615226L9.84235 0.176556C10.4808 -0.193483 11.2988 0.0377073 11.6491 0.687196L12.0643 1.45715C12.2823 1.86139 12.6965 2.12162 13.1553 2.14271L14.0291 2.18286ZM12.4431 8.30922C12.4431 10.4759 10.6866 12.2323 8.51998 12.2323C6.35332 12.2323 4.5969 10.4759 4.5969 8.30922C4.5969 6.14257 6.35332 4.38614 8.51998 4.38614C10.6866 4.38614 12.4431 6.14257 12.4431 8.30922ZM9.17415 6.34864H7.86645V10.2699H9.17415V6.34864Z" fill="#FF5C00"/>
</svg>
