<svg width="142" height="48" viewBox="0 0 142 48" fill="none" xmlns="http://www.w3.org/2000/svg">
<path d="M53.404 16.3954C53.404 15.5585 53.3778 14.7739 53.3255 14.0417C53.2732 13.3094 53.2471 12.6425 53.2471 12.041H56.15C56.15 12.5379 56.163 13.0348 56.1892 13.5317C56.2153 14.0286 56.2284 14.5385 56.2284 15.0616H56.3069C56.5161 14.617 56.8038 14.1855 57.1699 13.7671C57.5622 13.3486 58.0198 12.9825 58.5429 12.6687C59.0659 12.3287 59.6543 12.0672 60.3082 11.8841C60.962 11.6749 61.6681 11.5703 62.4265 11.5703C63.6295 11.5703 64.6625 11.7533 65.5255 12.1195C66.4147 12.4856 67.1469 12.9956 67.7223 13.6494C68.2976 14.3032 68.7161 15.1008 68.9776 16.0423C69.2653 16.9576 69.4091 17.9645 69.4091 19.0629V30.3998H66.3493V19.3767C66.3493 17.8337 66.0093 16.6176 65.3294 15.7285C64.6494 14.8393 63.5902 14.3947 62.1519 14.3947C61.1581 14.3947 60.2951 14.5647 59.5628 14.9047C58.8567 15.2447 58.2683 15.7285 57.7975 16.3561C57.353 16.9838 57.013 17.7291 56.7776 18.5921C56.5684 19.4552 56.4638 20.4097 56.4638 21.4558V30.3998H53.404V16.3954Z" fill="white"/>
<path d="M75.4763 12.041H78.5361V30.3998H75.4763V12.041ZM74.7702 4.86225C74.7702 4.26075 74.9794 3.73771 75.3978 3.29312C75.8424 2.84854 76.3785 2.62624 77.0062 2.62624C77.6339 2.62624 78.1569 2.84854 78.5753 3.29312C79.0199 3.73771 79.2422 4.26075 79.2422 4.86225C79.2422 5.51605 79.033 6.05217 78.6146 6.47061C78.1961 6.88904 77.66 7.09826 77.0062 7.09826C76.3524 7.09826 75.8163 6.88904 75.3978 6.47061C74.9794 6.05217 74.7702 5.51605 74.7702 4.86225Z" fill="white"/>
<path d="M84.4688 0.743286H87.5286V14.7085H87.607C88.4439 13.7148 89.4115 12.9433 90.5099 12.3941C91.6344 11.8449 92.8636 11.5703 94.1974 11.5703C95.6357 11.5703 96.9433 11.8187 98.1202 12.3156C99.3232 12.7864 100.343 13.4532 101.18 14.3163C102.017 15.1793 102.671 16.1992 103.141 17.3761C103.612 18.5529 103.848 19.8344 103.848 21.2204C103.848 22.6065 103.612 23.8879 103.141 25.0648C102.671 26.2416 102.017 27.2616 101.18 28.1246C100.369 28.9876 99.4016 29.6676 98.2771 30.1645C97.1526 30.6352 95.9496 30.8706 94.6681 30.8706C93.0205 30.8706 91.5691 30.5175 90.3138 29.8114C89.0846 29.0791 88.1824 28.19 87.607 27.1439H87.5286V30.3998H84.4688V0.743286ZM87.5286 21.2204C87.5286 22.1881 87.6724 23.0903 87.9601 23.9272C88.2739 24.7379 88.7185 25.4571 89.2938 26.0847C89.8692 26.6862 90.5491 27.17 91.3337 27.5362C92.1444 27.8761 93.0467 28.0461 94.0404 28.0461C95.0342 28.0461 95.9234 27.8761 96.708 27.5362C97.5187 27.17 98.2117 26.6862 98.7871 26.0847C99.3624 25.4571 99.7939 24.7379 100.082 23.9272C100.395 23.0903 100.552 22.1881 100.552 21.2204C100.552 20.2528 100.395 19.3636 100.082 18.5529C99.7939 17.716 99.3624 16.9968 98.7871 16.3954C98.2117 15.7677 97.5187 15.2839 96.708 14.9439C95.9234 14.5778 95.0342 14.3947 94.0404 14.3947C93.0467 14.3947 92.1444 14.5778 91.3337 14.9439C90.5491 15.2839 89.8692 15.7677 89.2938 16.3954C88.7185 16.9968 88.2739 17.716 87.9601 18.5529C87.6724 19.3636 87.5286 20.2528 87.5286 21.2204Z" fill="white"/>
<path d="M107.156 21.2204C107.156 19.7821 107.404 18.4744 107.901 17.2976C108.398 16.1208 109.078 15.1139 109.941 14.277C110.804 13.414 111.837 12.7471 113.04 12.2764C114.243 11.8056 115.55 11.5703 116.963 11.5703C118.375 11.5703 119.682 11.8056 120.885 12.2764C122.088 12.7471 123.121 13.414 123.984 14.277C124.847 15.1139 125.527 16.1208 126.024 17.2976C126.521 18.4744 126.77 19.7821 126.77 21.2204C126.77 22.6588 126.521 23.9664 126.024 25.1432C125.527 26.3201 124.847 27.34 123.984 28.203C123.121 29.0399 122.088 29.6937 120.885 30.1645C119.682 30.6352 118.375 30.8706 116.963 30.8706C115.55 30.8706 114.243 30.6352 113.04 30.1645C111.837 29.6937 110.804 29.0399 109.941 28.203C109.078 27.34 108.398 26.3201 107.901 25.1432C107.404 23.9664 107.156 22.6588 107.156 21.2204ZM110.451 21.2204C110.451 22.1881 110.595 23.0903 110.882 23.9272C111.196 24.7379 111.641 25.4571 112.216 26.0847C112.791 26.6862 113.471 27.17 114.256 27.5362C115.067 27.8761 115.969 28.0461 116.963 28.0461C117.956 28.0461 118.846 27.8761 119.63 27.5362C120.441 27.17 121.134 26.6862 121.709 26.0847C122.285 25.4571 122.716 24.7379 123.004 23.9272C123.318 23.0903 123.474 22.1881 123.474 21.2204C123.474 20.2528 123.318 19.3636 123.004 18.5529C122.716 17.716 122.285 16.9968 121.709 16.3954C121.134 15.7677 120.441 15.2839 119.63 14.9439C118.846 14.5778 117.956 14.3947 116.963 14.3947C115.969 14.3947 115.067 14.5778 114.256 14.9439C113.471 15.2839 112.791 15.7677 112.216 16.3954C111.641 16.9968 111.196 17.716 110.882 18.5529C110.595 19.3636 110.451 20.2528 110.451 21.2204Z" fill="white"/>
<path d="M131.114 16.3954C131.114 15.5585 131.088 14.7739 131.036 14.0417C130.983 13.3094 130.957 12.6425 130.957 12.041H133.86C133.86 12.5379 133.873 13.0348 133.899 13.5317C133.926 14.0286 133.939 14.5385 133.939 15.0616H134.017C134.226 14.617 134.514 14.1855 134.88 13.7671C135.272 13.3486 135.73 12.9825 136.253 12.6687C136.776 12.3287 137.365 12.0672 138.018 11.8841C138.672 11.6749 139.378 11.5703 140.137 11.5703C140.346 11.5703 140.555 11.5834 140.764 11.6095C140.974 11.6357 141.183 11.688 141.392 11.7664L141.196 14.8654C140.673 14.7085 140.124 14.6301 139.548 14.6301C137.665 14.6301 136.292 15.2447 135.429 16.4738C134.592 17.6768 134.174 19.3375 134.174 21.4558V30.3998H131.114V16.3954Z" fill="white"/>
<path d="M53.2383 36.9781H55.2316C55.7142 36.9781 56.1714 37.0321 56.603 37.14C57.0402 37.2479 57.4207 37.4239 57.7444 37.6681C58.0681 37.9066 58.3236 38.2189 58.511 38.6051C58.7041 38.9912 58.8007 39.4597 58.8007 40.0106C58.8007 40.499 58.707 40.9305 58.5196 41.3053C58.3378 41.6745 58.0908 41.9868 57.7785 42.2423C57.4661 42.4922 57.1055 42.6824 56.6967 42.813C56.2878 42.9437 55.8591 43.009 55.4104 43.009H53.2383V36.9781ZM54.5671 41.7824H55.2571C55.5638 41.7824 55.8477 41.7511 56.1089 41.6887C56.3758 41.6262 56.6058 41.524 56.7989 41.382C56.992 41.2344 57.1425 41.0441 57.2504 40.8113C57.3639 40.5728 57.4207 40.2832 57.4207 39.9424C57.4207 39.6471 57.3639 39.3916 57.2504 39.1758C57.1425 38.9543 56.9948 38.7726 56.8074 38.6306C56.62 38.4887 56.3985 38.3836 56.143 38.3155C55.8931 38.2416 55.6291 38.2047 55.3508 38.2047H54.5671V41.7824Z" fill="white"/>
<path d="M61.4054 36.9781H63.7394C64.046 36.9781 64.3356 37.0094 64.6082 37.0718C64.8865 37.1286 65.1278 37.228 65.3323 37.37C65.5424 37.5062 65.7071 37.6936 65.8263 37.9322C65.9512 38.165 66.0137 38.4574 66.0137 38.8095C66.0137 39.2354 65.903 39.5989 65.6815 39.8998C65.46 40.1951 65.1363 40.3825 64.7104 40.462L66.2437 43.009H64.6508L63.3901 40.5983H62.7342V43.009H61.4054V36.9781ZM62.7342 39.4739H63.5179C63.6372 39.4739 63.7621 39.4711 63.8927 39.4654C64.029 39.4541 64.1511 39.4285 64.259 39.3888C64.3669 39.3433 64.4549 39.2752 64.523 39.1843C64.5969 39.0935 64.6338 38.9657 64.6338 38.801C64.6338 38.6477 64.6025 38.5256 64.5401 38.4347C64.4776 38.3439 64.3981 38.2757 64.3016 38.2303C64.205 38.1792 64.0943 38.1451 63.9694 38.1281C63.8444 38.111 63.7223 38.1025 63.6031 38.1025H62.7342V39.4739Z" fill="white"/>
<path d="M68.6836 36.9781H72.7808V38.2047H70.0124V39.3291H72.6275V40.5557H70.0124V41.7824H72.9342V43.009H68.6836V36.9781Z" fill="white"/>
<path d="M78.6829 38.4518C78.575 38.3155 78.4274 38.2161 78.24 38.1536C78.0582 38.0855 77.885 38.0514 77.7203 38.0514C77.6238 38.0514 77.5244 38.0628 77.4222 38.0855C77.32 38.1082 77.2235 38.1451 77.1326 38.1962C77.0417 38.2416 76.9679 38.3041 76.9111 38.3836C76.8543 38.4631 76.8259 38.5597 76.8259 38.6732C76.8259 38.855 76.8941 38.9941 77.0304 39.0906C77.1667 39.1872 77.337 39.2695 77.5415 39.3376C77.7516 39.4058 77.9759 39.4739 78.2144 39.5421C78.4529 39.6102 78.6744 39.7068 78.8788 39.8317C79.0889 39.9566 79.2621 40.1242 79.3984 40.3343C79.5347 40.5444 79.6029 40.8255 79.6029 41.1776C79.6029 41.5126 79.5404 41.8051 79.4155 42.0549C79.2905 42.3048 79.1202 42.5121 78.9044 42.6768C78.6943 42.8414 78.4472 42.9635 78.1633 43.043C77.885 43.1225 77.5897 43.1623 77.2774 43.1623C76.8856 43.1623 76.5221 43.1027 76.1871 42.9834C75.852 42.8642 75.5397 42.6711 75.2501 42.4042L76.1956 41.365C76.3319 41.5467 76.5023 41.6887 76.7067 41.7909C76.9168 41.8874 77.1326 41.9357 77.3541 41.9357C77.462 41.9357 77.5699 41.9243 77.6778 41.9016C77.7913 41.8732 77.8907 41.8335 77.9759 41.7824C78.0668 41.7312 78.1377 41.6659 78.1888 41.5864C78.2456 41.5069 78.274 41.4132 78.274 41.3053C78.274 41.1236 78.203 40.9816 78.0611 40.8794C77.9248 40.7715 77.7516 40.6807 77.5415 40.6068C77.3314 40.533 77.1042 40.4592 76.86 40.3854C76.6158 40.3116 76.3887 40.2122 76.1786 40.0872C75.9685 39.9623 75.7924 39.7976 75.6504 39.5932C75.5142 39.3888 75.446 39.119 75.446 38.784C75.446 38.4603 75.5085 38.1763 75.6334 37.9322C75.764 37.688 75.9344 37.4835 76.1445 37.3188C76.3603 37.1542 76.6073 37.0321 76.8856 36.9526C77.1638 36.8674 77.4506 36.8248 77.7459 36.8248C78.0866 36.8248 78.416 36.8731 78.734 36.9696C79.052 37.0661 79.3388 37.228 79.5943 37.4551L78.6829 38.4518Z" fill="white"/>
<path d="M85.2778 38.4518C85.1699 38.3155 85.0223 38.2161 84.8349 38.1536C84.6531 38.0855 84.4799 38.0514 84.3152 38.0514C84.2187 38.0514 84.1193 38.0628 84.0171 38.0855C83.9149 38.1082 83.8184 38.1451 83.7275 38.1962C83.6366 38.2416 83.5628 38.3041 83.506 38.3836C83.4492 38.4631 83.4208 38.5597 83.4208 38.6732C83.4208 38.855 83.489 38.9941 83.6253 39.0906C83.7616 39.1872 83.9319 39.2695 84.1364 39.3376C84.3465 39.4058 84.5708 39.4739 84.8093 39.5421C85.0478 39.6102 85.2693 39.7068 85.4737 39.8317C85.6838 39.9566 85.857 40.1242 85.9933 40.3343C86.1296 40.5444 86.1978 40.8255 86.1978 41.1776C86.1978 41.5126 86.1353 41.8051 86.0104 42.0549C85.8854 42.3048 85.7151 42.5121 85.4993 42.6768C85.2892 42.8414 85.0421 42.9635 84.7582 43.043C84.4799 43.1225 84.1846 43.1623 83.8723 43.1623C83.4805 43.1623 83.117 43.1027 82.782 42.9834C82.4469 42.8642 82.1346 42.6711 81.845 42.4042L82.7905 41.365C82.9268 41.5467 83.0972 41.6887 83.3016 41.7909C83.5117 41.8874 83.7275 41.9357 83.949 41.9357C84.0569 41.9357 84.1648 41.9243 84.2727 41.9016C84.3862 41.8732 84.4856 41.8335 84.5708 41.7824C84.6617 41.7312 84.7326 41.6659 84.7837 41.5864C84.8405 41.5069 84.8689 41.4132 84.8689 41.3053C84.8689 41.1236 84.7979 40.9816 84.656 40.8794C84.5197 40.7715 84.3465 40.6807 84.1364 40.6068C83.9263 40.533 83.6991 40.4592 83.4549 40.3854C83.2107 40.3116 82.9836 40.2122 82.7735 40.0872C82.5633 39.9623 82.3873 39.7976 82.2453 39.5932C82.1091 39.3888 82.0409 39.119 82.0409 38.784C82.0409 38.4603 82.1034 38.1763 82.2283 37.9322C82.3589 37.688 82.5293 37.4835 82.7394 37.3188C82.9552 37.1542 83.2022 37.0321 83.4805 36.9526C83.7587 36.8674 84.0455 36.8248 84.3408 36.8248C84.6815 36.8248 85.0109 36.8731 85.3289 36.9696C85.6469 37.0661 85.9337 37.228 86.1892 37.4551L85.2778 38.4518Z" fill="white"/>
<path d="M90.8761 36.9781H91.9749L94.5985 43.009H93.0993L92.5797 41.7312H90.2372L89.7346 43.009H88.2695L90.8761 36.9781ZM91.3872 38.7329L90.6546 40.6068H92.1282L91.3872 38.7329Z" fill="white"/>
<path d="M102.369 42.5831C101.977 42.7875 101.568 42.9351 101.142 43.026C100.716 43.1169 100.282 43.1623 99.8389 43.1623C99.3676 43.1623 98.9332 43.0885 98.5357 42.9408C98.1382 42.7932 97.7946 42.5831 97.505 42.3105C97.2154 42.0322 96.9882 41.6972 96.8235 41.3053C96.6645 40.9135 96.585 40.4762 96.585 39.9935C96.585 39.5108 96.6645 39.0736 96.8235 38.6818C96.9882 38.2899 97.2154 37.9577 97.505 37.6851C97.7946 37.4069 98.1382 37.1939 98.5357 37.0463C98.9332 36.8986 99.3676 36.8248 99.8389 36.8248C100.322 36.8248 100.765 36.8844 101.168 37.0037C101.577 37.1173 101.934 37.316 102.241 37.5999L101.304 38.6221C101.122 38.4347 100.918 38.2928 100.691 38.1962C100.464 38.0997 100.18 38.0514 99.8389 38.0514C99.555 38.0514 99.2966 38.0997 99.0638 38.1962C98.8366 38.2928 98.6407 38.429 98.476 38.6051C98.3114 38.7755 98.1836 38.9799 98.0927 39.2184C98.0075 39.4569 97.965 39.7153 97.965 39.9935C97.965 40.2775 98.0075 40.5387 98.0927 40.7772C98.1836 41.01 98.3114 41.2145 98.476 41.3905C98.6407 41.5609 98.8366 41.6943 99.0638 41.7909C99.2966 41.8874 99.555 41.9357 99.8389 41.9357C100.129 41.9357 100.378 41.9044 100.589 41.842C100.799 41.7738 100.966 41.7057 101.091 41.6375V40.658H100.009V39.4313H102.369V42.5831Z" fill="white"/>
<path d="M105.293 36.9781H109.39V38.2047H106.622V39.3291H109.237V40.5557H106.622V41.7824H109.544V43.009H105.293V36.9781Z" fill="white"/>
<path d="M116.535 36.9781H118.776C119.088 36.9781 119.383 37.0065 119.661 37.0633C119.94 37.1201 120.181 37.2195 120.386 37.3614C120.596 37.4977 120.76 37.6851 120.88 37.9236C121.005 38.1565 121.067 38.4518 121.067 38.8095C121.067 39.1616 121.01 39.4569 120.897 39.6954C120.783 39.9339 120.627 40.1242 120.428 40.2661C120.229 40.4081 119.994 40.5103 119.721 40.5728C119.449 40.6296 119.153 40.658 118.835 40.658H117.864V43.009H116.535V36.9781ZM117.864 39.5336H118.75C118.869 39.5336 118.983 39.5222 119.091 39.4995C119.204 39.4768 119.304 39.4399 119.389 39.3888C119.48 39.332 119.551 39.2581 119.602 39.1673C119.659 39.0707 119.687 38.9515 119.687 38.8095C119.687 38.6562 119.65 38.5341 119.576 38.4432C119.508 38.3467 119.417 38.2729 119.304 38.2218C119.196 38.1707 119.074 38.1394 118.937 38.1281C118.801 38.111 118.671 38.1025 118.546 38.1025H117.864V39.5336Z" fill="white"/>
<path d="M123.604 36.9781H125.938C126.245 36.9781 126.535 37.0094 126.807 37.0718C127.085 37.1286 127.327 37.228 127.531 37.37C127.741 37.5062 127.906 37.6936 128.025 37.9322C128.15 38.165 128.213 38.4574 128.213 38.8095C128.213 39.2354 128.102 39.5989 127.88 39.8998C127.659 40.1951 127.335 40.3825 126.909 40.462L128.443 43.009H126.85L125.589 40.5983H124.933V43.009H123.604V36.9781ZM124.933 39.4739H125.717C125.836 39.4739 125.961 39.4711 126.092 39.4654C126.228 39.4541 126.35 39.4285 126.458 39.3888C126.566 39.3433 126.654 39.2752 126.722 39.1843C126.796 39.0935 126.833 38.9657 126.833 38.801C126.833 38.6477 126.802 38.5256 126.739 38.4347C126.677 38.3439 126.597 38.2757 126.501 38.2303C126.404 38.1792 126.293 38.1451 126.168 38.1281C126.043 38.111 125.921 38.1025 125.802 38.1025H124.933V39.4739Z" fill="white"/>
<path d="M130.883 36.9781H134.98V38.2047H132.211V39.3291H134.826V40.5557H132.211V41.7824H135.133V43.009H130.883V36.9781Z" fill="white"/>
<mask id="mask0" mask-type="alpha" maskUnits="userSpaceOnUse" x="0" y="0" width="48" height="48">
<circle cx="23.5369" cy="23.7198" r="23.5369" fill="#C4C4C4"/>
</mask>
<g mask="url(#mask0)">
<path fill-rule="evenodd" clip-rule="evenodd" d="M36.4868 36.7028C35.7809 36.5951 34.9567 36.3225 34.3083 35.733C33.5028 35.0008 32.9152 34.1796 32.5746 33.6096C33.2481 33.0806 33.6807 32.2588 33.6807 31.336C33.6807 30.1902 33.0139 29.2002 32.0471 28.7329C32.2923 27.9695 32.4246 27.1556 32.4246 26.3107C32.4246 21.9395 28.8811 18.396 24.5099 18.396C20.2591 18.396 16.791 21.747 16.6031 25.9514L14.6705 27.5748C14.4702 27.743 14.5892 28.0696 14.8507 28.0696H16.7912C16.8982 28.5411 17.0473 28.9966 17.2343 29.432C17.202 30.2036 16.8422 31.1464 16.343 32.2154C16.2256 32.4666 16.7188 32.8435 17.5984 32.9691C18.0593 33.8067 19.0818 35.6074 19.4838 36.1099C19.9863 36.7381 20.4889 37.3662 22.3733 36.9893C23.8809 36.6878 25.1791 36.2774 25.6397 36.1099C25.7235 36.8218 25.6146 38.3964 24.5091 38.9994C23.4035 39.6025 21.7871 40.172 21.117 40.3814C20.8239 41.889 19.4838 45.5226 18.3529 46.9766C17.7487 47.7534 24.5571 49.0345 30.5076 48.2121C30.5203 48.8514 30.4494 49.4881 30.2721 50.1261C28.9112 55.0243 22.2448 55.4524 19.1742 55.4416L-2.90401 90.9957L-4.85305 89.7804L2.41574 51.4752L-21.7985 32.5679C-29.8906 41.9916 -41.0614 39.2777 -45.6353 36.7428L-59.3432 55.8014L-61.2121 54.6361L-50.0982 32.056C-43.2607 31.7504 -38.9868 27.5614 -37.7046 25.5051L-30.4385 13.8529C-27.4531 9.06538 -23.2619 13.166 -19.5877 16.7609C-18.212 18.1069 -16.9088 19.382 -15.7684 20.0931L-4.89059 26.1394L2.41574 34.2274C2.41574 34.2274 -2.94265 20.7777 7.14461 11.531C16.8541 2.6307 27.0827 5.93184 32.5094 7.68322L32.5097 7.6833L32.5112 7.68377C32.7217 7.75172 32.925 7.81733 33.1208 7.87981L36.1455 9.14933L41.5776 9.39383L38.4737 13.2613C38.0462 15.4436 39.148 20.3849 40.1271 24.7762C40.8751 28.1309 41.5515 31.1646 41.4198 32.4018C41.2731 34.653 38.1137 36.3142 36.4868 36.7028ZM-20.1856 37.1273L-11.9707 43.4561C-12.968 45.0554 -15.3014 47.7587 -18.9038 48.6523C-22.3723 49.5128 -24.3939 48.675 -25.3727 48.2693C-25.6267 48.164 -25.8105 48.0879 -25.9311 48.078L-34.1761 71.4951L-36.0947 70.2987L-29.4538 42.0736C-29.0515 41.9342 -28.5826 41.8274 -28.0591 41.7082C-26.0282 41.2458 -23.1739 40.5959 -20.1856 37.1273Z" fill="#FFA62D"/>
</g>
</svg>
