<svg width="171" height="56" viewBox="0 0 171 56" fill="none" xmlns="http://www.w3.org/2000/svg">
<path d="M64.458 18.8443C64.458 17.8368 64.4265 16.8922 64.3635 16.0106C64.3005 15.129 64.269 14.3261 64.269 13.6019H67.764C67.764 14.2002 67.7797 14.7984 67.8112 15.3966C67.8427 15.9949 67.8584 16.6088 67.8584 17.2386H67.9529C68.2048 16.7033 68.5511 16.1838 68.9919 15.68C69.4642 15.1762 70.0152 14.7354 70.6449 14.3576C71.2747 13.9483 71.9831 13.6334 72.7702 13.413C73.5574 13.1611 74.4075 13.0352 75.3206 13.0352C76.769 13.0352 78.0127 13.2556 79.0517 13.6964C80.1222 14.1372 81.0038 14.7512 81.6965 15.5383C82.3892 16.3255 82.893 17.2858 83.2078 18.4193C83.5542 19.5213 83.7274 20.7335 83.7274 22.0559V35.7051H80.0435V22.4337C80.0435 20.5761 79.6342 19.112 78.8155 18.0414C77.9969 16.9709 76.7217 16.4357 74.99 16.4357C73.7935 16.4357 72.7545 16.6403 71.8729 17.0496C71.0228 17.459 70.3143 18.0414 69.7476 18.7971C69.2123 19.5528 68.803 20.4501 68.5196 21.4892C68.2678 22.5282 68.1418 23.6774 68.1418 24.9369V35.7051H64.458V18.8443Z" fill="#7E8FC7"/>
<path d="M91.032 13.6019H94.7158V35.7051H91.032V13.6019ZM90.1818 4.95904C90.1818 4.23486 90.4337 3.60514 90.9375 3.06988C91.4728 2.53462 92.1182 2.26699 92.8739 2.26699C93.6296 2.26699 94.2593 2.53462 94.7631 3.06988C95.2983 3.60514 95.5659 4.23486 95.5659 4.95904C95.5659 5.74618 95.3141 6.39165 94.8103 6.89542C94.3065 7.3992 93.661 7.65108 92.8739 7.65108C92.0868 7.65108 91.4413 7.3992 90.9375 6.89542C90.4337 6.39165 90.1818 5.74618 90.1818 4.95904Z" fill="#7E8FC7"/>
<path d="M101.858 0H105.542V16.8135H105.637C106.644 15.617 107.809 14.6882 109.132 14.027C110.486 13.3658 111.965 13.0352 113.571 13.0352C115.303 13.0352 116.877 13.3343 118.294 13.9325C119.742 14.4993 120.97 15.3022 121.978 16.3412C122.986 17.3802 123.773 18.6082 124.339 20.0251C124.906 21.4419 125.19 22.9847 125.19 24.6535C125.19 26.3222 124.906 27.8651 124.339 29.2819C123.773 30.6988 122.986 31.9267 121.978 32.9658C121.002 34.0048 119.837 34.8235 118.483 35.4217C117.129 35.9884 115.681 36.2718 114.138 36.2718C112.154 36.2718 110.407 35.8467 108.896 34.9966C107.416 34.115 106.329 33.0445 105.637 31.7851H105.542V35.7051H101.858V0ZM105.542 24.6535C105.542 25.8185 105.715 26.9047 106.062 27.9123C106.44 28.8884 106.975 29.7542 107.668 30.5099C108.36 31.2341 109.179 31.8165 110.124 32.2573C111.1 32.6667 112.186 32.8713 113.382 32.8713C114.579 32.8713 115.649 32.6667 116.594 32.2573C117.57 31.8165 118.404 31.2341 119.097 30.5099C119.79 29.7542 120.309 28.8884 120.656 27.9123C121.033 26.9047 121.222 25.8185 121.222 24.6535C121.222 23.4885 121.033 22.418 120.656 21.4419C120.309 20.4344 119.79 19.5685 119.097 18.8443C118.404 18.0887 117.57 17.5062 116.594 17.0969C115.649 16.6561 114.579 16.4357 113.382 16.4357C112.186 16.4357 111.1 16.6561 110.124 17.0969C109.179 17.5062 108.36 18.0887 107.668 18.8443C106.975 19.5685 106.44 20.4344 106.062 21.4419C105.715 22.418 105.542 23.4885 105.542 24.6535Z" fill="#7E8FC7"/>
<path d="M129.172 24.6535C129.172 22.9218 129.471 21.3475 130.07 19.9306C130.668 18.5137 131.486 17.3015 132.526 16.294C133.565 15.2549 134.808 14.452 136.257 13.8853C137.705 13.3186 139.279 13.0352 140.98 13.0352C142.68 13.0352 144.254 13.3186 145.702 13.8853C147.151 14.452 148.394 15.2549 149.433 16.294C150.473 17.3015 151.291 18.5137 151.889 19.9306C152.488 21.3475 152.787 22.9218 152.787 24.6535C152.787 26.3852 152.488 27.9595 151.889 29.3764C151.291 30.7933 150.473 32.0212 149.433 33.0602C148.394 34.0678 147.151 34.8549 145.702 35.4217C144.254 35.9884 142.68 36.2718 140.98 36.2718C139.279 36.2718 137.705 35.9884 136.257 35.4217C134.808 34.8549 133.565 34.0678 132.526 33.0602C131.486 32.0212 130.668 30.7933 130.07 29.3764C129.471 27.9595 129.172 26.3852 129.172 24.6535ZM133.139 24.6535C133.139 25.8185 133.313 26.9047 133.659 27.9123C134.037 28.8884 134.572 29.7542 135.265 30.5099C135.957 31.2341 136.776 31.8165 137.721 32.2573C138.697 32.6667 139.783 32.8713 140.98 32.8713C142.176 32.8713 143.246 32.6667 144.191 32.2573C145.167 31.8165 146.002 31.2341 146.694 30.5099C147.387 29.7542 147.906 28.8884 148.253 27.9123C148.631 26.9047 148.82 25.8185 148.82 24.6535C148.82 23.4885 148.631 22.418 148.253 21.4419C147.906 20.4344 147.387 19.5685 146.694 18.8443C146.002 18.0887 145.167 17.5062 144.191 17.0969C143.246 16.6561 142.176 16.4357 140.98 16.4357C139.783 16.4357 138.697 16.6561 137.721 17.0969C136.776 17.5062 135.957 18.0887 135.265 18.8443C134.572 19.5685 134.037 20.4344 133.659 21.4419C133.313 22.418 133.139 23.4885 133.139 24.6535Z" fill="#7E8FC7"/>
<path d="M158.017 18.8443C158.017 17.8368 157.986 16.8922 157.923 16.0106C157.86 15.129 157.828 14.3261 157.828 13.6019H161.323C161.323 14.2002 161.339 14.7984 161.371 15.3966C161.402 15.9949 161.418 16.6088 161.418 17.2386H161.512C161.764 16.7033 162.111 16.1838 162.551 15.68C163.024 15.1762 163.575 14.7354 164.204 14.3576C164.834 13.9483 165.542 13.6334 166.33 13.413C167.117 13.1611 167.967 13.0352 168.88 13.0352C169.132 13.0352 169.384 13.0509 169.636 13.0824C169.888 13.1139 170.139 13.1769 170.391 13.2713L170.155 17.0024C169.525 16.8135 168.864 16.719 168.172 16.719C165.905 16.719 164.252 17.459 163.213 18.9388C162.205 20.3871 161.701 22.3865 161.701 24.9369V35.7051H158.017V18.8443Z" fill="#7E8FC7"/>
<path d="M64.2585 43.625H66.6583C67.2395 43.625 67.7898 43.69 68.3094 43.8199C68.8359 43.9498 69.294 44.1617 69.6837 44.4557C70.0734 44.7429 70.381 45.1189 70.6067 45.5838C70.8391 46.0487 70.9553 46.6128 70.9553 47.276C70.9553 47.8639 70.8425 48.3835 70.6169 48.8348C70.3981 49.2792 70.1007 49.6552 69.7247 49.9629C69.3487 50.2637 68.9145 50.4927 68.4222 50.65C67.93 50.8072 67.4138 50.8859 66.8737 50.8859H64.2585V43.625ZM65.8584 49.4091H66.6891C67.0583 49.4091 67.4001 49.3715 67.7146 49.2963C68.036 49.2211 68.3129 49.098 68.5453 48.9271C68.7778 48.7493 68.9589 48.5203 69.0888 48.24C69.2256 47.9528 69.294 47.6041 69.294 47.1939C69.294 46.8384 69.2256 46.5307 69.0888 46.2709C68.9589 46.0043 68.7812 45.7855 68.5556 45.6146C68.3299 45.4437 68.0633 45.3172 67.7556 45.2351C67.4548 45.1462 67.1369 45.1018 66.8019 45.1018H65.8584V49.4091Z" fill="#7E8FC7"/>
<path d="M74.0913 43.625H76.9013C77.2705 43.625 77.6192 43.6626 77.9474 43.7378C78.2824 43.8062 78.5729 43.9259 78.8191 44.0968C79.072 44.2609 79.2703 44.4865 79.4139 44.7736C79.5643 45.0539 79.6395 45.4061 79.6395 45.8299C79.6395 46.3427 79.5062 46.7803 79.2396 47.1426C78.9729 47.4982 78.5832 47.7238 78.0704 47.8195L79.9164 50.8859H77.9986L76.4808 47.9836H75.6912V50.8859H74.0913V43.625ZM75.6912 46.6299H76.6347C76.7783 46.6299 76.9287 46.6264 77.0859 46.6196C77.25 46.6059 77.397 46.5752 77.5269 46.5273C77.6568 46.4726 77.7628 46.3906 77.8448 46.2812C77.9337 46.1718 77.9781 46.018 77.9781 45.8197C77.9781 45.6351 77.9405 45.4881 77.8653 45.3787C77.7901 45.2693 77.6944 45.1873 77.5782 45.1326C77.4619 45.071 77.3286 45.03 77.1782 45.0095C77.0278 44.989 76.8808 44.9787 76.7372 44.9787H75.6912V46.6299Z" fill="#7E8FC7"/>
<path d="M82.8539 43.625H87.7868V45.1018H84.4538V46.4555H87.6022V47.9323H84.4538V49.4091H87.9714V50.8859H82.8539V43.625Z" fill="#7E8FC7"/>
<path d="M94.8926 45.3992C94.7627 45.2351 94.5849 45.1155 94.3593 45.0403C94.1405 44.9582 93.932 44.9172 93.7337 44.9172C93.6175 44.9172 93.4979 44.9309 93.3748 44.9582C93.2517 44.9856 93.1355 45.03 93.0261 45.0916C92.9167 45.1462 92.8279 45.2215 92.7595 45.3172C92.6911 45.4129 92.6569 45.5291 92.6569 45.6659C92.6569 45.8846 92.739 46.0521 92.9031 46.1684C93.0671 46.2846 93.2723 46.3837 93.5184 46.4658C93.7714 46.5478 94.0414 46.6299 94.3286 46.7119C94.6157 46.794 94.8824 46.9102 95.1285 47.0606C95.3815 47.211 95.59 47.4127 95.7541 47.6657C95.9182 47.9186 96.0002 48.2571 96.0002 48.681C96.0002 49.0843 95.925 49.4364 95.7746 49.7373C95.6242 50.0381 95.4191 50.2876 95.1593 50.4859C94.9063 50.6842 94.6089 50.8312 94.267 50.9269C93.932 51.0226 93.5765 51.0705 93.2005 51.0705C92.7287 51.0705 92.2912 50.9987 91.8878 50.8551C91.4844 50.7115 91.1084 50.4791 90.7597 50.1577L91.898 48.9066C92.0621 49.1254 92.2672 49.2963 92.5134 49.4193C92.7663 49.5356 93.0261 49.5937 93.2928 49.5937C93.4227 49.5937 93.5526 49.58 93.6825 49.5527C93.8192 49.5185 93.9389 49.4706 94.0414 49.4091C94.1508 49.3476 94.2363 49.2689 94.2978 49.1732C94.3662 49.0775 94.4003 48.9647 94.4003 48.8348C94.4003 48.616 94.3149 48.4451 94.144 48.322C93.9799 48.1921 93.7714 48.0827 93.5184 47.9938C93.2654 47.905 92.9919 47.8161 92.6979 47.7272C92.404 47.6383 92.1305 47.5187 91.8775 47.3683C91.6245 47.2178 91.4126 47.0196 91.2417 46.7734C91.0776 46.5273 90.9956 46.2026 90.9956 45.7992C90.9956 45.4095 91.0708 45.0676 91.2212 44.7736C91.3784 44.4796 91.5835 44.2335 91.8365 44.0352C92.0963 43.837 92.3937 43.69 92.7287 43.5943C93.0637 43.4917 93.409 43.4404 93.7645 43.4404C94.1747 43.4404 94.5713 43.4985 94.9541 43.6148C95.337 43.731 95.6823 43.9259 95.9899 44.1993L94.8926 45.3992Z" fill="#7E8FC7"/>
<path d="M102.833 45.3992C102.703 45.2351 102.525 45.1155 102.299 45.0403C102.08 44.9582 101.872 44.9172 101.674 44.9172C101.557 44.9172 101.438 44.9309 101.315 44.9582C101.192 44.9856 101.075 45.03 100.966 45.0916C100.857 45.1462 100.768 45.2215 100.699 45.3172C100.631 45.4129 100.597 45.5291 100.597 45.6659C100.597 45.8846 100.679 46.0521 100.843 46.1684C101.007 46.2846 101.212 46.3837 101.458 46.4658C101.711 46.5478 101.981 46.6299 102.269 46.7119C102.556 46.794 102.822 46.9102 103.068 47.0606C103.321 47.211 103.53 47.4127 103.694 47.6657C103.858 47.9186 103.94 48.2571 103.94 48.681C103.94 49.0843 103.865 49.4364 103.715 49.7373C103.564 50.0381 103.359 50.2876 103.099 50.4859C102.846 50.6842 102.549 50.8312 102.207 50.9269C101.872 51.0226 101.516 51.0705 101.14 51.0705C100.669 51.0705 100.231 50.9987 99.8277 50.8551C99.4243 50.7115 99.0483 50.4791 98.6996 50.1577L99.838 48.9066C100.002 49.1254 100.207 49.2963 100.453 49.4193C100.706 49.5356 100.966 49.5937 101.233 49.5937C101.363 49.5937 101.493 49.58 101.622 49.5527C101.759 49.5185 101.879 49.4706 101.981 49.4091C102.091 49.3476 102.176 49.2689 102.238 49.1732C102.306 49.0775 102.34 48.9647 102.34 48.8348C102.34 48.616 102.255 48.4451 102.084 48.322C101.92 48.1921 101.711 48.0827 101.458 47.9938C101.205 47.905 100.932 47.8161 100.638 47.7272C100.344 47.6383 100.07 47.5187 99.8175 47.3683C99.5645 47.2178 99.3525 47.0196 99.1816 46.7734C99.0175 46.5273 98.9355 46.2026 98.9355 45.7992C98.9355 45.4095 99.0107 45.0676 99.1611 44.7736C99.3184 44.4796 99.5235 44.2335 99.7764 44.0352C100.036 43.837 100.334 43.69 100.669 43.5943C101.004 43.4917 101.349 43.4404 101.704 43.4404C102.115 43.4404 102.511 43.4985 102.894 43.6148C103.277 43.731 103.622 43.9259 103.93 44.1993L102.833 45.3992Z" fill="#7E8FC7"/>
<path d="M109.573 43.625H110.896L114.054 50.8859H112.249L111.624 49.3476H108.803L108.198 50.8859H106.434L109.573 43.625ZM110.188 45.7376L109.306 47.9938H111.08L110.188 45.7376Z" fill="#7E8FC7"/>
<path d="M123.409 50.3731C122.938 50.6192 122.445 50.797 121.933 50.9064C121.42 51.0158 120.897 51.0705 120.363 51.0705C119.796 51.0705 119.273 50.9816 118.794 50.8038C118.316 50.6261 117.902 50.3731 117.553 50.0449C117.205 49.7099 116.931 49.3065 116.733 48.8348C116.542 48.363 116.446 47.8366 116.446 47.2554C116.446 46.6743 116.542 46.1479 116.733 45.6761C116.931 45.2044 117.205 44.8044 117.553 44.4762C117.902 44.1412 118.316 43.8848 118.794 43.7071C119.273 43.5293 119.796 43.4404 120.363 43.4404C120.945 43.4404 121.478 43.5122 121.963 43.6558C122.456 43.7925 122.886 44.0318 123.256 44.3737L122.127 45.6043C121.909 45.3787 121.662 45.2078 121.389 45.0916C121.116 44.9753 120.774 44.9172 120.363 44.9172C120.022 44.9172 119.711 44.9753 119.43 45.0916C119.157 45.2078 118.921 45.3719 118.723 45.5838C118.524 45.7889 118.371 46.0351 118.261 46.3222C118.159 46.6094 118.107 46.9204 118.107 47.2554C118.107 47.5973 118.159 47.9118 118.261 48.1989C118.371 48.4793 118.524 48.7254 118.723 48.9373C118.921 49.1424 119.157 49.3031 119.43 49.4193C119.711 49.5356 120.022 49.5937 120.363 49.5937C120.712 49.5937 121.013 49.5561 121.266 49.4809C121.519 49.3988 121.721 49.3168 121.871 49.2347V48.0554H120.569V46.5786H123.409V50.3731Z" fill="#7E8FC7"/>
<path d="M126.93 43.625H131.863V45.1018H128.53V46.4555H131.678V47.9323H128.53V49.4091H132.048V50.8859H126.93V43.625Z" fill="#7E8FC7"/>
<path d="M140.465 43.625H143.162C143.538 43.625 143.894 43.6592 144.229 43.7276C144.564 43.796 144.854 43.9156 145.101 44.0865C145.354 44.2506 145.552 44.4762 145.695 44.7634C145.846 45.0437 145.921 45.3992 145.921 45.8299C145.921 46.2538 145.853 46.6094 145.716 46.8965C145.579 47.1837 145.391 47.4127 145.152 47.5836C144.913 47.7545 144.629 47.8776 144.301 47.9528C143.972 48.0212 143.617 48.0554 143.234 48.0554H142.065V50.8859H140.465V43.625ZM142.065 46.7017H143.132C143.275 46.7017 143.412 46.688 143.542 46.6606C143.679 46.6333 143.798 46.5888 143.901 46.5273C144.01 46.4589 144.096 46.3701 144.157 46.2607C144.225 46.1444 144.26 46.0009 144.26 45.8299C144.26 45.6453 144.215 45.4984 144.126 45.389C144.044 45.2727 143.935 45.1839 143.798 45.1223C143.668 45.0608 143.521 45.0232 143.357 45.0095C143.193 44.989 143.036 44.9787 142.885 44.9787H142.065V46.7017Z" fill="#7E8FC7"/>
<path d="M148.976 43.625H151.786C152.155 43.625 152.504 43.6626 152.832 43.7378C153.167 43.8062 153.458 43.9259 153.704 44.0968C153.957 44.2609 154.155 44.4865 154.298 44.7736C154.449 45.0539 154.524 45.4061 154.524 45.8299C154.524 46.3427 154.391 46.7803 154.124 47.1426C153.858 47.4982 153.468 47.7238 152.955 47.8195L154.801 50.8859H152.883L151.365 47.9836H150.576V50.8859H148.976V43.625ZM150.576 46.6299H151.519C151.663 46.6299 151.813 46.6264 151.971 46.6196C152.135 46.6059 152.282 46.5752 152.411 46.5273C152.541 46.4726 152.647 46.3906 152.729 46.2812C152.818 46.1718 152.863 46.018 152.863 45.8197C152.863 45.6351 152.825 45.4881 152.75 45.3787C152.675 45.2693 152.579 45.1873 152.463 45.1326C152.347 45.071 152.213 45.03 152.063 45.0095C151.912 44.989 151.765 44.9787 151.622 44.9787H150.576V46.6299Z" fill="#7E8FC7"/>
<path d="M157.739 43.625H162.671V45.1018H159.338V46.4555H162.487V47.9323H159.338V49.4091H162.856V50.8859H157.739V43.625Z" fill="#7E8FC7"/>
<mask id="mask0" mask-type="alpha" maskUnits="userSpaceOnUse" x="0" y="-1" width="57" height="57">
<circle cx="28.4995" cy="27.6627" r="28.3373" fill="#C4C4C4"/>
</mask>
<g mask="url(#mask0)">
<path fill-rule="evenodd" clip-rule="evenodd" d="M44.0904 43.2936C43.2403 43.164 42.2477 42.8358 41.4668 42.1259C40.4971 41.2443 39.7896 40.2557 39.3795 39.5695C40.1904 38.9326 40.7112 37.9431 40.7112 36.8321C40.7112 35.4526 39.9084 34.2608 38.7445 33.6981C39.0396 32.779 39.199 31.7991 39.199 30.782C39.199 25.5192 34.9327 21.253 29.67 21.253C24.5522 21.253 20.3768 25.2874 20.1506 30.3493L17.8238 32.3038C17.5827 32.5064 17.7259 32.8995 18.0408 32.8995H20.3771C20.5059 33.4672 20.6854 34.0156 20.9106 34.5397C20.8717 35.4688 20.4385 36.6038 19.8374 37.8908C19.6961 38.1933 20.2899 38.6471 21.3488 38.7983C21.9038 39.8067 23.1348 41.9747 23.6188 42.5797C24.2238 43.336 24.8289 44.0922 27.0977 43.6385C28.9127 43.2755 30.4757 42.7814 31.0303 42.5797C31.1311 43.4368 31 45.3325 29.669 46.0585C28.338 46.7846 26.3918 47.4702 25.5851 47.7223C25.2322 49.5374 23.6188 53.9121 22.2573 55.6626C21.5299 56.5979 29.7277 58.1404 36.892 57.15C36.9074 57.9198 36.822 58.6863 36.6086 59.4546C34.9701 65.3518 26.944 65.8672 23.2472 65.8541L-3.33393 108.66L-5.68047 107.196L3.0708 61.0788L-26.082 38.3153C-35.8245 49.661 -49.2736 46.3936 -54.7804 43.3417L-71.2841 66.2874L-73.5341 64.8843L-60.1535 37.699C-51.9214 37.331 -46.7759 32.2877 -45.2321 29.8121L-36.4841 15.7833C-32.8898 10.0194 -27.8439 14.9563 -23.4203 19.2844C-21.764 20.9049 -20.195 22.4401 -18.822 23.2962L-5.72567 30.5757L3.0708 40.3132C3.0708 40.3132 -3.38045 24.1205 8.76413 12.9879C20.4539 2.27235 32.7687 6.24677 39.3022 8.35534C39.5564 8.43738 39.8019 8.5166 40.0382 8.59202L43.6798 10.1205L50.2198 10.4148L46.4829 15.071C45.9682 17.6985 47.2947 23.6476 48.4735 28.9344L48.4735 28.9346C49.374 32.9735 50.1884 36.6259 50.0298 38.1153C49.8532 40.8259 46.049 42.8259 44.0904 43.2936ZM-24.1401 43.8046L-14.2498 51.4242C-15.4505 53.3497 -18.2597 56.6043 -22.5968 57.6802C-26.7728 58.7161 -29.2067 57.7074 -30.3852 57.219C-30.691 57.0923 -30.9122 57.0006 -31.0575 56.9887L-40.984 85.1818L-43.294 83.7414L-35.2986 49.7597C-34.8142 49.5919 -34.2497 49.4633 -33.6194 49.3198C-31.1744 48.7631 -27.7379 47.9806 -24.1401 43.8046Z" fill="#FFA62D"/>
</g>
</svg>
