<svg width="1023" height="1036" viewBox="0 0 1023 1036" fill="none" xmlns="http://www.w3.org/2000/svg">
<path d="M154.511 149.549C-93.4702 377.144 29.9643 705.459 36.0804 721.597C113.922 878.52 259.041 995.934 433.628 1036C461.429 998.16 493.677 908.569 500.906 870.73C517.586 865.721 557.063 851.253 584.307 835.672C611.552 820.648 614.332 780.582 612.108 762.775C600.988 767.227 568.739 777.243 531.486 785.034C484.781 794.494 472.549 778.913 460.317 762.775C450.309 749.976 425.288 704.902 413.612 683.2C391.927 679.862 379.695 670.402 382.475 664.28C394.708 637.57 403.604 613.642 404.716 594.166C400.268 583.036 396.376 571.907 393.596 559.665H345.779C339.106 559.665 336.326 551.318 341.33 547.423L389.147 506.244C393.596 399.959 479.221 315.376 584.307 315.376C692.173 315.376 779.467 404.967 779.467 515.147C779.467 536.293 776.131 556.882 770.015 575.802L770.571 576.359C793.924 588.045 810.048 613.086 810.048 642.022C810.048 664.837 799.484 685.426 783.359 698.781C783.359 699.338 783.915 700.451 783.915 701.007C792.255 715.475 806.712 734.952 825.616 752.759C852.861 778.356 892.893 781.695 909.574 779.469C952.387 764.444 1015.22 726.048 1018.55 675.41C1021.89 644.248 1004.65 567.455 985.747 482.872C961.839 372.692 934.038 248.044 945.158 192.953L1023 95.5718L886.221 89.4507L810.048 57.1756C805.044 55.5062 800.04 53.8368 794.479 52.1675C657.701 8.20661 399.712 -75.2634 154.511 149.549Z" fill="#FFA62D"/>
</svg>
