<svg width="1036" height="1036" viewBox="0 0 1036 1036" fill="none" xmlns="http://www.w3.org/2000/svg">
<g clip-path="url(#clip0)">
<path d="M156.474 149.549C-94.658 377.144 30.345 705.459 36.5389 721.597C115.37 878.52 262.333 995.934 439.138 1036C467.293 998.16 499.95 908.569 507.271 870.73C524.163 865.721 564.142 851.253 591.732 835.672C619.323 820.648 622.139 780.582 619.886 762.775C608.625 767.227 575.966 777.243 538.24 785.034C490.941 794.494 478.554 778.913 466.167 762.775C456.031 749.976 430.692 704.902 418.868 683.2C396.907 679.862 384.52 670.402 387.335 664.28C399.724 637.57 408.733 613.642 409.859 594.166C405.354 583.036 401.413 571.907 398.598 559.665H350.173C343.415 559.665 340.6 551.318 345.667 547.423L394.092 506.244C398.598 399.959 485.311 315.376 591.732 315.376C700.969 315.376 789.372 404.967 789.372 515.147C789.372 536.293 785.994 556.882 779.8 575.802L780.363 576.359C804.013 588.045 820.342 613.086 820.342 642.022C820.342 664.837 809.644 685.426 793.314 698.781C793.314 699.338 793.877 700.451 793.877 701.007C802.323 715.475 816.963 734.952 836.108 752.759C863.699 778.356 904.24 781.695 921.133 779.469C964.49 764.444 1028.12 726.048 1031.49 675.41C1034.88 644.248 1017.42 567.455 998.274 482.872C974.062 372.692 945.907 248.044 957.169 192.953L1036 95.5718L897.483 89.4507L820.342 57.1756C815.274 55.5062 810.207 53.8368 804.575 52.1675C666.059 8.20662 404.791 -75.2634 156.474 149.549Z" fill="#FFA62D"/>
</g>
<defs>
<clipPath id="clip0">
<rect width="1036" height="1036" fill="white"/>
</clipPath>
</defs>
</svg>
